<?xml version="1.0"?>
<svg xmlns="http://www.w3.org/2000/svg" xmlns:xlink="http://www.w3.org/1999/xlink" xmlns:svgjs="http://svgjs.com/svgjs" version="1.1" width="512" height="512" x="0" y="0" viewBox="0 0 510 510" style="enable-background:new 0 0 512 512" xml:space="preserve" class=""><g><g xmlns="http://www.w3.org/2000/svg"><path d="m405 0v30h75v75h30v-105z" fill="#ffffff" data-original="#000000" style="" class=""/><path d="m480 480h-75v30h105v-105h-30z" fill="#ffffff" data-original="#000000" style="" class=""/><path d="m30 405h-30v105h105v-30h-75z" fill="#ffffff" data-original="#000000" style="" class=""/><path d="m30 30h75v-30h-105v105h30z" fill="#ffffff" data-original="#000000" style="" class=""/><circle cx="255" cy="255" r="45" fill="#ffffff" data-original="#000000" style="" class=""/><path d="m336.561 134.249c-26.062-8.118-53.485-12.343-81.561-12.343s-55.499 4.225-81.561 12.343c-.638.815-1.272 1.636-1.899 2.472-23.563 31.418-36.54 73.424-36.54 118.279s12.977 86.861 36.54 118.279c.627.836 1.261 1.657 1.899 2.472 26.062 8.118 53.485 12.343 81.561 12.343s55.5-4.225 81.561-12.343c.637-.815 1.272-1.636 1.898-2.472 23.564-31.418 36.541-73.424 36.541-118.279s-12.977-86.861-36.54-118.279c-.627-.836-1.261-1.657-1.899-2.472zm-81.561 195.751c-41.355 0-75-33.645-75-75s33.645-75 75-75 75 33.645 75 75-33.645 75-75 75z" fill="#ffffff" data-original="#000000" style="" class=""/><path d="m448.106 308.106 53.107-53.106-53.106-53.106c-19.397-19.398-41.2-35.516-64.733-48.08 14.084 30.189 21.626 64.96 21.626 101.186s-7.542 70.996-21.626 101.186c23.533-12.564 45.335-28.682 64.732-48.08z" fill="#ffffff" data-original="#000000" style="" class=""/><path d="m61.894 201.894-53.107 53.106 53.107 53.106c19.397 19.397 41.2 35.515 64.733 48.08-14.086-30.19-21.627-64.96-21.627-101.186s7.541-70.997 21.627-101.186c-23.533 12.564-45.336 28.682-64.733 48.08z" fill="#ffffff" data-original="#000000" style="" class=""/></g></g></svg>
